<svg width="1440" height="820" viewBox="0 0 1440 820" fill="none" xmlns="http://www.w3.org/2000/svg">
<path d="M92.4996 736C-56.9994 597.5 -7.33454 237.167 0.498792 31.5H1441C1441 572.5 1419.5 635 1289.5 742.5C1174.87 837.286 220.099 854.211 92.4996 736Z" fill="#B8D3E4"/>
<path d="M92.4996 736C-56.9994 597.5 -7.33454 237.167 0.498792 31.5H1441C1504 525 1351 847 871.5 750.5C647.518 705.423 220.099 854.211 92.4996 736Z" fill="#186597"/>
<path d="M92.4996 671C-56.9994 532.5 -7.33454 172.167 0.498792 -33.5H1441C1504 460 1351 782 871.5 685.5C647.518 640.423 220.099 789.211 92.4996 671Z" fill="#1B70A8"/>
<path opacity="0.75" d="M192.231 236.905C191.947 230.999 195.159 225.478 200.433 222.805L218.348 213.724C220.053 212.86 221.908 212.33 223.812 212.162L250.818 209.78C256.703 209.261 262.345 212.245 265.229 217.402L278.427 241.009C279.692 243.272 280.349 245.824 280.334 248.417L280.19 272.779C280.156 278.462 276.913 283.639 271.813 286.148L249.513 297.123C247.718 298.006 245.764 298.522 243.767 298.639L220.912 299.977C215.081 300.319 209.583 297.245 206.82 292.098L195.316 270.673C194.26 268.706 193.657 266.528 193.549 264.298L192.231 236.905Z" stroke="#E8F1F6" stroke-width="10"/>
<path opacity="0.75" d="M652.678 283.548C648.301 279.573 646.667 273.398 648.507 267.778L654.754 248.689C655.349 246.873 656.285 245.186 657.512 243.721L674.924 222.94C678.719 218.412 684.819 216.532 690.504 218.14L716.529 225.5C719.024 226.206 721.293 227.546 723.116 229.39L740.24 246.719C744.235 250.761 745.602 256.715 743.771 262.095L735.763 285.624C735.118 287.518 734.101 289.264 732.771 290.759L717.557 307.866C713.676 312.231 707.614 313.945 702.021 312.26L678.736 305.244C676.599 304.6 674.632 303.487 672.98 301.986L652.678 283.548Z" stroke="#E8F1F6" stroke-width="10"/>
<path opacity="0.75" d="M109.601 656.94C103.765 651.64 101.587 643.406 104.039 635.913L116.026 599.289C116.819 596.867 118.067 594.619 119.704 592.665L151.218 555.054C156.277 549.015 164.41 546.509 171.991 548.653L219.795 562.172C223.122 563.113 226.148 564.9 228.578 567.359L260.464 599.625C265.791 605.016 267.614 612.954 265.172 620.128L250.516 663.187C249.656 665.713 248.3 668.041 246.527 670.034L218.12 701.976C212.944 707.796 204.861 710.082 197.404 707.835L154.199 694.816C151.349 693.957 148.727 692.473 146.523 690.472L109.601 656.94Z" fill="url(#paint0_linear_341_28674)"/>
<path opacity="0.75" d="M399.821 602.895C398.515 597.128 400.72 591.133 405.449 587.584L421.516 575.531C423.045 574.384 424.779 573.54 426.625 573.044L452.807 566.008C458.513 564.475 464.588 566.434 468.323 571.012L485.419 591.968C487.059 593.977 488.149 596.377 488.584 598.933L492.672 622.95C493.626 628.553 491.331 634.214 486.745 637.571L466.689 652.251C465.075 653.433 463.24 654.28 461.293 654.742L439.019 660.028C433.336 661.377 427.386 659.305 423.772 654.716L408.723 635.614C407.341 633.86 406.369 631.82 405.876 629.643L399.821 602.895Z" stroke="#E8F1F6" stroke-width="10"/>
<defs>
<linearGradient id="paint0_linear_341_28674" x1="240.673" y1="568.671" x2="147.673" y2="690.171" gradientUnits="userSpaceOnUse">
<stop stop-color="#E8F1F6"/>
<stop offset="1" stop-color="#E8F1F6" stop-opacity="0"/>
</linearGradient>
</defs>
</svg>
