<svg width="51" height="33" viewBox="0 0 51 33" fill="none" xmlns="http://www.w3.org/2000/svg">
<path d="M10.8809 32.0894C12.4746 32.0894 13.9434 31.1831 14.6309 29.7769L19.0684 20.9019C19.5059 20.0269 19.7246 19.0894 19.7246 18.1206V3.96436C19.7246 2.24561 18.3184 0.839355 16.5996 0.839355H4.09961C2.38086 0.839355 0.974609 2.24561 0.974609 3.96436V16.4644C0.974609 18.1831 2.38086 19.5894 4.09961 19.5894H10.3496L7.13086 26.0269C5.72461 28.8081 7.75586 32.0894 10.8809 32.0894ZM42.1309 32.0894C43.7246 32.0894 45.1934 31.1831 45.8809 29.7769L50.3184 20.9019C50.7559 20.0269 50.9746 19.0894 50.9746 18.1206V3.96436C50.9746 2.24561 49.5684 0.839355 47.8496 0.839355H35.3496C33.6309 0.839355 32.2246 2.24561 32.2246 3.96436V16.4644C32.2246 18.1831 33.6309 19.5894 35.3496 19.5894H41.5996L38.3809 26.0269C36.9746 28.8081 39.0059 32.0894 42.1309 32.0894Z" fill="#1B70A8"/>
</svg>
