<svg width="80" height="80" viewBox="0 0 80 80" fill="none" xmlns="http://www.w3.org/2000/svg">
<g clip-path="url(#clip0_316_27692)">
<path d="M43.3333 28.5669C40.7 28.5669 38.5667 30.7002 38.5667 33.3336C38.5667 35.9669 40.7 38.1002 43.3333 38.1002C45.9667 38.1002 48.1 35.9669 48.1 33.3336C48.1 30.7002 45.9667 28.5669 43.3333 28.5669Z" fill="#333333"/>
<path d="M44.0333 10.0001C31.2333 9.6334 20.7 19.5667 20.0667 32.1334L13.6667 40.6667C12.8333 41.7667 13.6333 43.3334 15 43.3334H20V53.3334C20 57.0001 23 60.0001 26.6667 60.0001H30V66.6667C30 68.5001 31.5 70.0001 33.3333 70.0001H50C51.8333 70.0001 53.3333 68.5001 53.3333 66.6667V54.4001C61.4667 50.5334 67 42.1334 66.6666 32.4667C66.2 20.4001 56.0667 10.3667 44.0333 10.0001ZM53.3333 33.3334C53.3333 33.7667 53.3 34.2001 53.2666 34.6334L56.0333 36.8334C56.3 37.0334 56.3667 37.3667 56.2 37.6667L53.5333 42.3001C53.3666 42.6001 53 42.7001 52.7333 42.6001L49.4333 41.2667C48.7333 41.8001 48 42.2334 47.2 42.5667L46.6666 46.1001C46.6333 46.4334 46.3333 46.6667 46 46.6667H40.6667C40.3333 46.6667 40.0667 46.4334 40 46.1001L39.5 42.5667C38.6667 42.2334 37.9333 41.8001 37.2333 41.2667L33.9333 42.6001C33.6333 42.7001 33.2667 42.6001 33.1 42.3001L30.4333 37.6667C30.2667 37.4001 30.3333 37.0334 30.6 36.8334L33.4 34.6334C33.3667 34.2001 33.3333 33.7667 33.3333 33.3334C33.3333 32.9001 33.4 32.4334 33.4667 32.0334L30.6333 29.8334C30.3666 29.6334 30.3 29.3001 30.4667 28.9667L33.1333 24.3667C33.3 24.0667 33.6333 23.9667 33.9333 24.0667L37.2667 25.4001C37.9333 24.9001 38.7 24.4334 39.5 24.1001L40 20.5667C40.0667 20.2334 40.3333 20.0001 40.6667 20.0001H46C46.3333 20.0001 46.6 20.2334 46.6666 20.5667L47.1666 24.1001C47.9666 24.4334 48.7 24.8667 49.4 25.4001L52.7333 24.0667C53.0333 23.9667 53.4 24.0667 53.5333 24.3667L56.2 28.9667C56.3667 29.2667 56.3 29.6334 56.0333 29.8334L53.2 32.0334C53.3 32.4334 53.3333 32.8667 53.3333 33.3334Z" fill="#333333"/>
</g>
<defs>
<clipPath id="clip0_316_27692">
<rect width="80" height="80" fill="white"/>
</clipPath>
</defs>
</svg>
