<svg width="80" height="80" viewBox="0 0 80 80" fill="none" xmlns="http://www.w3.org/2000/svg">
<g clip-path="url(#clip0_316_27706)">
<path d="M37.3 4.5335L13.9667 14.9002C11.5667 15.9668 10 18.3668 10 21.0002V36.6668C10 55.1668 22.8 72.4668 40 76.6668C57.2 72.4668 70 55.1668 70 36.6668V21.0002C70 18.3668 68.4333 15.9668 66.0333 14.9002L42.7 4.5335C41 3.76683 39 3.76683 37.3 4.5335ZM30.9667 54.3002L22.3333 45.6668C21.0333 44.3668 21.0333 42.2668 22.3333 40.9668C23.6333 39.6668 25.7333 39.6668 27.0333 40.9668L33.3333 47.2335L52.9333 27.6335C54.2333 26.3335 56.3333 26.3335 57.6333 27.6335C58.9333 28.9335 58.9333 31.0335 57.6333 32.3335L35.6667 54.3002C34.4 55.6002 32.2667 55.6002 30.9667 54.3002Z" fill="#333333"/>
</g>
<defs>
<clipPath id="clip0_316_27706">
<rect width="80" height="80" fill="white"/>
</clipPath>
</defs>
</svg>
