<svg width="82" height="100" viewBox="0 0 82 100" fill="none" xmlns="http://www.w3.org/2000/svg">
<g clip-path="url(#clip0_316_27731)">
<path d="M41.9999 39.4998C45.6818 39.4998 48.6666 36.5151 48.6666 32.8332C48.6666 29.1513 45.6818 26.1665 41.9999 26.1665C38.318 26.1665 35.3333 29.1513 35.3333 32.8332C35.3333 36.5151 38.318 39.4998 41.9999 39.4998Z" fill="#333333"/>
<path d="M54.9666 46.5332C53.6666 45.2332 51.4333 42.8332 47.0999 42.8332C46.3999 42.8332 42.3666 42.8332 38.6333 42.8332C29.4666 42.7998 21.9999 35.3332 21.9999 26.1665H15.3333C15.3333 36.6998 22.3666 45.6332 31.9999 48.5332V92.8332H38.6666V72.8332H45.3333V92.8332H51.9999V52.9998L65.1666 66.1665L69.8666 61.4665L54.9666 46.5332Z" fill="#333333"/>
</g>
<g clip-path="url(#clip1_316_27731)">
<path d="M31.6667 8.83333H28.3333V5.5H11.6667V8.83333H8.33333C6.5 8.83333 5 10.3333 5 12.1667V13.8333C5 18.0833 8.2 21.55 12.3167 22.0667C13.3667 24.5667 15.6167 26.45 18.3333 27V32.1667H11.6667V35.5H28.3333V32.1667H21.6667V27C24.3833 26.45 26.6333 24.5667 27.6833 22.0667C31.8 21.55 35 18.0833 35 13.8333V12.1667C35 10.3333 33.5 8.83333 31.6667 8.83333ZM8.33333 13.8333V12.1667H11.6667V18.5333C9.73333 17.8333 8.33333 16 8.33333 13.8333ZM20 23.8333C17.25 23.8333 15 21.5833 15 18.8333V8.83333H25V18.8333C25 21.5833 22.75 23.8333 20 23.8333ZM31.6667 13.8333C31.6667 16 30.2667 17.8333 28.3333 18.5333V12.1667H31.6667V13.8333Z" fill="#333333"/>
</g>
<defs>
<clipPath id="clip0_316_27731">
<rect width="80" height="80" fill="white" transform="translate(2 19.5)"/>
</clipPath>
<clipPath id="clip1_316_27731">
<rect width="40" height="40" fill="white" transform="translate(0 0.5)"/>
</clipPath>
</defs>
</svg>
