<svg width="90" height="96" viewBox="0 0 90 96" fill="none" xmlns="http://www.w3.org/2000/svg">
<g clip-path="url(#clip0_316_27737)">
<path d="M70.0002 5.5C69.2335 5.5 68.4502 5.56667 67.6669 5.73333C63.0669 6.61667 59.4002 10.3333 58.5335 14.9333C57.7335 19.2833 59.3335 23.2833 62.2335 25.8667C62.9502 26.5 63.3335 27.3833 63.3335 28.3167V32.1667C63.3335 34 64.8335 35.5 66.6669 35.5H67.1335C67.7169 36.5 68.7669 37.1667 70.0002 37.1667C71.2335 37.1667 72.3002 36.5 72.8669 35.5H73.3335C75.1669 35.5 76.6669 34 76.6669 32.1667V28.3167C76.6669 27.4 77.0335 26.5 77.7335 25.8833C80.1502 23.75 81.6669 20.6333 81.6669 17.1667C81.6669 10.7167 76.4502 5.5 70.0002 5.5ZM73.3335 28.8333H66.6669V27.1667H73.3335V28.8333ZM66.6669 32.1667V30.5H73.3335V32.1667H66.6669ZM75.5169 23.4C75.3669 23.5333 75.2502 23.7 75.1169 23.8333H64.8669C64.7335 23.6833 64.6169 23.5167 64.4669 23.3833C62.2669 21.4167 61.2835 18.4833 61.8169 15.55C62.4169 12.3167 65.0835 9.63333 68.3002 9C68.8669 8.88333 69.4335 8.83333 70.0002 8.83333C74.6002 8.83333 78.3335 12.5667 78.3335 17.1667C78.3335 19.55 77.3169 21.8167 75.5169 23.4Z" fill="#333333"/>
<path d="M70.8337 18.8335H69.167V23.8335H70.8337V18.8335Z" fill="#333333"/>
<path d="M67.2996 15.2898L66.1211 16.4683L69.6566 20.0038L70.8351 18.8253L67.2996 15.2898Z" fill="#333333"/>
<path d="M69.1687 18.842L70.3472 20.0205L73.8827 16.485L72.7042 15.3065L69.1687 18.842Z" fill="#333333"/>
</g>
<g clip-path="url(#clip1_316_27737)">
<path d="M44.9666 33.7664C48.6333 33.7664 51.6333 30.7664 51.6333 27.0998C51.6333 23.4331 48.6333 20.4331 44.9666 20.4331C41.3 20.4331 38.3 23.4331 38.3 27.0998C38.3 30.7664 41.3 33.7664 44.9666 33.7664ZM32.9666 80.0998L36.3 65.4331L43.3 72.0998V92.0998H49.9666V67.0998L42.9666 60.4331L44.9666 50.4331C49.3 55.4331 55.9666 58.7664 63.3 58.7664V52.0998C56.9666 52.0998 51.6333 48.7664 48.9666 44.0998L45.6333 38.7664C44.3 36.7664 42.3 35.4331 39.9666 35.4331C38.9666 35.4331 38.3 35.7664 37.3 35.7664L19.9666 43.0998V58.7664H26.6333V47.4331L32.6333 45.0998L27.3 72.0998L10.9666 68.7664L9.6333 75.4331L32.9666 80.0998Z" fill="#333333"/>
</g>
<defs>
<clipPath id="clip0_316_27737">
<rect width="40" height="40" fill="white" transform="translate(50 0.5)"/>
</clipPath>
<clipPath id="clip1_316_27737">
<rect width="80" height="80" fill="white" transform="translate(0 15.5)"/>
</clipPath>
</defs>
</svg>
