<svg width="58" height="58" viewBox="0 0 58 58" fill="none" xmlns="http://www.w3.org/2000/svg">
<path d="M36.8286 19.7998H20.3671C19.6129 19.7998 19 20.3953 19 21.1264V36.8732C19 37.6043 19.6129 38.1998 20.3671 38.1998H36.8286C37.5829 38.1998 38.2 37.6043 38.2 36.8732V21.1264C38.2 20.3953 37.5829 19.7998 36.8286 19.7998ZM24.8029 35.5712H21.9571V26.7902H24.8071V35.5712H24.8029ZM23.38 25.5909C22.4671 25.5909 21.73 24.8803 21.73 24.0096C21.73 23.1389 22.4671 22.4284 23.38 22.4284C24.2886 22.4284 25.03 23.1389 25.03 24.0096C25.03 24.8844 24.2929 25.5909 23.38 25.5909ZM35.47 35.5712H32.6243V31.2998C32.6243 30.2812 32.6029 28.9711 31.1457 28.9711C29.6629 28.9711 29.4357 30.08 29.4357 31.2259V35.5712H26.59V26.7902H29.32V27.9894H29.3586C29.74 27.2994 30.67 26.5725 32.0543 26.5725C34.9343 26.5725 35.47 28.3919 35.47 30.7577V35.5712Z" fill="white"/>
</svg>
