<svg width="58" height="58" viewBox="0 0 58 58" fill="none" xmlns="http://www.w3.org/2000/svg">
<path d="M33.8745 23.4493C33.215 22.7021 32.8515 21.7415 32.8518 20.7471H32.0544C32.1574 21.2969 32.3719 21.8201 32.6848 22.2847C32.9978 22.7492 33.4026 23.1455 33.8745 23.4493V23.4493ZM26.4959 29.2963C25.9366 29.2991 25.3943 29.4879 24.9553 29.8326C24.5162 30.1774 24.2056 30.6582 24.0727 31.1988C23.9399 31.7394 23.9925 32.3086 24.2222 32.816C24.4518 33.3234 24.8454 33.7399 25.3402 33.9992C25.0697 33.6275 24.9076 33.1886 24.872 32.731C24.8365 32.2734 24.9287 31.8149 25.1386 31.4062C25.3484 30.9975 25.6678 30.6545 26.0613 30.415C26.4548 30.1756 26.9072 30.0491 27.3685 30.0494C27.6192 30.0527 27.8682 30.0915 28.108 30.1647V27.1403C27.8631 27.1038 27.616 27.0846 27.3685 27.0828H27.2355V29.3825C26.9945 29.3182 26.7453 29.2891 26.4959 29.2963V29.2963Z" fill="white"/>
<path d="M36.1328 24.7891V27.0888C34.6448 27.0859 33.1954 26.6173 31.9899 25.7492V31.7917C31.9835 34.8068 29.5252 37.2478 26.495 37.2478C25.3696 37.2498 24.2713 36.9043 23.3516 36.2589C24.1015 37.0616 25.077 37.6209 26.151 37.864C27.225 38.1071 28.3476 38.0228 29.3728 37.622C30.3979 37.2212 31.278 36.5226 31.8983 35.617C32.5187 34.7115 32.8507 33.641 32.8509 32.5451V26.5197C34.0604 27.382 35.5116 27.8446 36.9995 27.842V24.8808C36.7082 24.88 36.4178 24.8492 36.1328 24.7891V24.7891Z" fill="white"/>
<path d="M31.9907 31.7915V25.749C33.1998 26.6121 34.6512 27.0747 36.1393 27.0713V24.7716C35.2602 24.5869 34.4653 24.1228 33.8744 23.4493C33.4024 23.1455 32.9976 22.7492 32.6847 22.2847C32.3717 21.8201 32.1572 21.2969 32.0542 20.7471H29.8702V32.6483C29.849 33.1663 29.666 33.6649 29.3469 34.0748C29.0277 34.4846 28.5882 34.7853 28.0894 34.9352C27.5905 35.085 27.0572 35.0765 26.5634 34.9109C26.0697 34.7452 25.64 34.4306 25.3342 34.0108C24.8393 33.7516 24.4457 33.3351 24.2159 32.8277C23.9862 32.3202 23.9336 31.7509 24.0665 31.2103C24.1993 30.6697 24.51 30.1887 24.9491 29.844C25.3882 29.4993 25.9306 29.3105 26.4899 29.3078C26.7408 29.31 26.9899 29.3487 27.2295 29.4228V27.123C26.1667 27.141 25.1321 27.4662 24.2518 28.0591C23.3716 28.652 22.6837 29.4869 22.2721 30.4621C21.8605 31.4372 21.7429 32.5105 21.9337 33.5509C22.1245 34.5914 22.6154 35.5542 23.3466 36.3219C24.2754 36.946 25.3753 37.2693 26.4958 37.2476C29.526 37.2476 31.9843 34.8066 31.9907 31.7915V31.7915Z" fill="white"/>
</svg>
